HIERARCHY
ROOT Hips
{
	OFFSET	0.00	0.00	0.00
	CHANNELS 6 Xposition Yposition Zposition Zrotation Xrotation Yrotation
	JOINT LeftUpLeg
	{
		OFFSET	 0.126116	-0.014019	-0.065224
		CHANNELS 3 Zrotation Xrotation Yrotation
		JOINT LeftLeg
		{
			OFFSET	 0.000000	 0.000000	 0.569914
			CHANNELS 3 Zrotation Xrotation Yrotation
			JOINT LeftFoot
			{
				OFFSET	 0.000000	 0.000000	 0.544423
				CHANNELS 3 Zrotation Xrotation Yrotation
				JOINT LeftToeBase
				{
					OFFSET	 0.000000	 0.000000	 0.207117
					CHANNELS 3 Zrotation Xrotation Yrotation
					End Site
					{
						OFFSET	 0.000000	 0.000000	 0.207117
					}
				}
			}
		}
	}
	JOINT RightUpLeg
	{
		OFFSET	-0.124023	-0.008373	-0.065224
		CHANNELS 3 Zrotation Xrotation Yrotation
		JOINT RightLeg
		{
			OFFSET	 0.000000	 0.000000	 0.570047
			CHANNELS 3 Zrotation Xrotation Yrotation
			JOINT RightFoot
			{
				OFFSET	 0.000000	 0.000000	 0.544354
				CHANNELS 3 Zrotation Xrotation Yrotation
				JOINT RightToeBase
				{
					OFFSET	 0.000000	 0.000000	 0.207540
					CHANNELS 3 Zrotation Xrotation Yrotation
					End Site
					{
						OFFSET	 0.000000	 0.000000	 0.207540
					}
				}
			}
		}
	}
	JOINT Spine
	{
		OFFSET	 0.000184	-0.007763	 0.117403
		CHANNELS 3 Zrotation Xrotation Yrotation
		JOINT Spine1
		{
			OFFSET	 0.000000	 0.000000	 0.137269
			CHANNELS 3 Zrotation Xrotation Yrotation
			JOINT Spine2
			{
				OFFSET	 0.000000	 0.000000	 0.156879
				CHANNELS 3 Zrotation Xrotation Yrotation
				JOINT LeftShoulder
				{
					OFFSET	 0.080501	-0.002496	 0.160144
					CHANNELS 3 Zrotation Xrotation Yrotation
					JOINT LeftArm
					{
						OFFSET	 0.000000	 0.000000	 0.164363
						CHANNELS 3 Zrotation Xrotation Yrotation
						JOINT LeftForeArm
						{
							OFFSET	 0.000000	 0.000000	 0.364576
							CHANNELS 3 Zrotation Xrotation Yrotation
							JOINT LeftHand
							{
								OFFSET	 0.000000	 0.000000	 0.360812
								CHANNELS 3 Zrotation Xrotation Yrotation
								JOINT LeftHandIndex1
								{
									OFFSET	 0.000000	 0.000000	 0.086006
									CHANNELS 3 Zrotation Xrotation Yrotation
									JOINT LeftHandIndex2
									{
										OFFSET	 0.000000	 0.000000	 0.047236
										CHANNELS 3 Zrotation Xrotation Yrotation
										JOINT LeftHandIndex3
										{
											OFFSET	-0.004284	-0.000551	 0.038166
											CHANNELS 3 Zrotation Xrotation Yrotation
											End Site
											{
												OFFSET	-0.004284	-0.000551	 0.038166
											}
										}
									}
								}
							}
						}
					}
				}
				JOINT Neck
				{
					OFFSET	 0.000000	 0.000000	 0.176489
					CHANNELS 3 Zrotation Xrotation Yrotation
					JOINT Head
					{
						OFFSET	 0.000000	-0.001747	 0.077940
						CHANNELS 3 Zrotation Xrotation Yrotation
						End Site
						{
							OFFSET	 0.000000	-0.001747	 0.077940
						}
					}
				}
				JOINT RightShoulder
				{
					OFFSET	-0.080363	 0.000306	 0.159706
					CHANNELS 3 Zrotation Xrotation Yrotation
					JOINT RightArm
					{
						OFFSET	 0.000000	 0.000000	 0.164196
						CHANNELS 3 Zrotation Xrotation Yrotation
						JOINT RightForeArm
						{
							OFFSET	 0.000000	 0.000000	 0.365611
							CHANNELS 3 Zrotation Xrotation Yrotation
							JOINT RightHand
							{
								OFFSET	 0.000000	 0.000000	 0.360648
								CHANNELS 3 Zrotation Xrotation Yrotation
								JOINT RightHandIndex1
								{
									OFFSET	 0.000000	 0.000000	 0.069977
									CHANNELS 3 Zrotation Xrotation Yrotation
									JOINT RightHandIndex2
									{
										OFFSET	 0.000000	 0.000000	 0.052305
										CHANNELS 3 Zrotation Xrotation Yrotation
										JOINT RightHandIndex3
										{
											OFFSET	 0.009002	-0.000782	 0.042196
											CHANNELS 3 Zrotation Xrotation Yrotation
											End Site
											{
												OFFSET	 0.009002	-0.000782	 0.042196
											}
										}
									}
								}
							}
						}
					}
				}
			}
		}
	}
}
MOTION
Frames:    4
Frame Time: 0.03333334
-0.078567	 6.805017	 1.254759	-98.575410	 1.625728	 0.931067	-15.073940	-7.058128	 177.519200	 17.357580	-41.028970	 5.476620	-97.595270	 74.029800	 75.461070	-2.179811	 47.912530	-0.512511	 1.499989	-8.086637	-168.657800	-9.684536	-36.597600	-0.950567	 47.955760	 72.574430	-33.299700	 1.961770	 56.306020	 0.849805	 37.388900	 6.765986	 0.983318	 2.556658	 3.946589	-1.593992	 2.927812	-19.321650	 3.529759	-91.229310	 83.958310	 178.242600	 34.773470	 49.550180	-61.214450	-10.370460	 2.319685	-8.198652	 43.713220	 3.343058	-13.917440	-11.831150	 9.696063	-26.539220	-5.213937	-0.202400	 3.566957	-1.378229	 35.397820	-2.634230	-2.036362	 4.241339	 3.274586	-5.434233	-12.314570	-15.833970	 87.726780	 87.418960	-176.798700	-8.960127	 65.017220	 9.584354	 8.700003	 2.275240	 8.235847	-36.982110	-4.103597	 8.495324	-0.923993	 25.194680	-61.783840	 5.070519	-0.690904	-9.399550	-2.350882	 35.473990	 5.254307
-0.076059	 6.825423	 1.255738	-94.068440	 2.190150	 1.632490	-17.253760	-8.188966	 176.174900	 18.415570	-42.303870	 6.335835	-95.121920	 73.110110	 73.099540	-2.207395	 46.400810	-0.462791	-2.459312	-7.166897	-169.870200	-7.804727	-34.949370	 0.163690	 45.215010	 74.043760	-31.121920	 1.997565	 55.203780	 0.798691	 38.459240	 6.031599	 0.765755	 1.892887	 5.823859	-2.509081	 5.378184	-21.342880	 4.684060	-91.229230	 83.958270	 178.242600	 30.910720	 50.000730	-56.209720	-6.770297	 1.606372	-7.037580	 43.549060	 2.227389	-12.491290	-11.449580	 9.697894	-25.191430	-5.213937	-0.202400	 3.566957	-1.378229	 35.397820	-2.634230	 0.063956	 4.852370	 0.557956	-3.235271	-14.601430	-11.696480	 87.726760	 87.418960	-176.798700	-8.163230	 64.178110	 9.301148	 6.706532	 1.571826	 7.082008	-36.627230	-4.176637	 8.472011	-1.513682	 24.404230	-62.231910	 5.070519	-0.690904	-9.399550	-2.350882	 35.473990	 5.254307
-0.072329	 6.844544	 1.256903	-89.796830	 2.904075	 2.167312	-18.988050	-9.568937	 174.818400	 19.625800	-43.485540	 7.323041	-91.785040	 72.453820	 69.772880	-2.232446	 44.884170	-0.415293	-6.450562	-6.552761	-171.012400	-6.019372	-33.347370	 1.138872	 41.507990	 75.698360	-27.948730	 2.085871	 52.063520	 0.666203	 38.219710	 5.575161	 0.669996	 0.898661	 7.662048	-3.651202	 8.417303	-23.692260	 6.405417	-91.229280	 83.958370	 178.242600	 25.235330	 50.749240	-49.604640	-3.276544	 0.983469	-5.774460	 42.097100	 1.050839	-10.503500	-11.053980	 9.432055	-23.575120	-5.213937	-0.202400	 3.566957	-1.378229	 35.397820	-2.634230	 2.534435	 6.203571	-2.372044	-0.652205	-17.658850	-7.217522	 87.727110	 87.418960	-176.799100	-7.658537	 63.494290	 9.395933	 4.015628	 0.952962	 5.819492	-36.906580	-4.216302	 8.496084	-1.566985	 24.408760	-62.593940	 5.070519	-0.690904	-9.399550	-2.350882	 35.473990	 5.254307
-0.068898	 6.859451	 1.257638	-86.596240	 3.494957	 2.317064	-19.785780	-10.858280	 173.998800	 20.117020	-44.403500	 7.794480	-87.995090	 72.242180	 66.263560	-2.271148	 42.198310	-0.336219	-9.389495	-6.205953	-171.667400	-4.555614	-32.152340	 1.882831	 37.302240	 76.664410	-24.397480	 2.039384	 53.799970	 0.737213	 37.197420	 5.197280	 0.661253	 0.002524	 9.262746	-4.335098	 11.225980	-25.397170	 7.946817	-91.229240	 83.958370	 178.242500	 18.148690	 51.981540	-42.479570	-0.233365	 0.549167	-4.651853	 39.596490	-0.268246	-8.074148	-11.091100	 8.711294	-23.154090	-5.213937	-0.202400	 3.566957	-1.378229	 35.397820	-2.634230	 4.943092	 7.231228	-5.336370	 2.024949	-19.827200	-2.601717	 87.726720	 87.418960	-176.798700	-7.372677	 62.974770	 9.888814	 1.737658	 0.522102	 4.699691	-37.106470	-4.240620	 8.536731	-0.590566	 25.840340	-62.479250	 5.070519	-0.690904	-9.399550	-2.350882	 35.473990	 5.254307
